<svg id="Layer_1" data-name="Layer 1" xmlns="http://www.w3.org/2000/svg" viewBox="0 0 64 64"><path d="M43.526,38.864a1,1,0,0,0-.973-.044,5.412,5.412,0,0,1-4.82,0l-.941-.47a3.321,3.321,0,0,0-1.48-.35,3.275,3.275,0,0,0-1.374.307A.981.981,0,0,0,34,38a1,1,0,0,0-1-1,1,1,0,0,1-1-1V34a1,1,0,0,0-2,0v2a3,3,0,0,0,2.951,2.995A3.3,3.3,0,0,0,32,41.312a3.31,3.31,0,0,0-4.792-2.962l-.941.47a5.418,5.418,0,0,1-4.82,0A1,1,0,0,0,20,39.714,5.292,5.292,0,0,0,25.286,45h3.4A3.315,3.315,0,0,0,32,41.688,3.315,3.315,0,0,0,35.312,45h3.4A5.292,5.292,0,0,0,44,39.714,1,1,0,0,0,43.526,38.864ZM30,41.688A1.313,1.313,0,0,1,28.688,43h-3.4a3.288,3.288,0,0,1-2.912-1.764,7.431,7.431,0,0,0,4.788-.627l.94-.47h0A1.311,1.311,0,0,1,30,41.312ZM38.714,43h-3.4A1.313,1.313,0,0,1,34,41.688v-.376a1.311,1.311,0,0,1,1.9-1.174h0l.94.47a7.431,7.431,0,0,0,4.788.627A3.288,3.288,0,0,1,38.714,43Z"/><path d="M6.457,25.982c2.657,1.714,6.255,2.4,9.291,2.784l.034.44a3.981,3.981,0,0,0,.606,7.732,13.872,13.872,0,0,0,2.725,7.132,4.69,4.69,0,0,0-.939.273,6.976,6.976,0,0,0-7.339-1.311,5.632,5.632,0,0,1-4.22.137l-.242-.1A1,1,0,0,0,5,44a6.166,6.166,0,0,0,2.27,4.687,6.168,6.168,0,0,0,3.958,1.5,5.542,5.542,0,0,0,.935-.08,8.132,8.132,0,0,0,2.869-1.141A7.462,7.462,0,0,0,22.478,57a9.856,9.856,0,0,1,7.013,2.905l1.8,1.8a1,1,0,0,0,.975.256l9.421-2.617A9.234,9.234,0,0,0,47.9,47.291a5.009,5.009,0,0,0-3.3-3.082,14.655,14.655,0,0,0,3.015-7.271,3.98,3.98,0,0,0,.607-7.732l.027-.357c5.683-.706,11.63-3.844,12.736-9.539.408-2.1-.334-4.764-2.54-5.793-2.777-1.3-6.627.316-9.173,1.384l-1.616.675a24.022,24.022,0,0,1-7.4,2.227,87.782,87.782,0,0,1-17.649-.847,34.221,34.221,0,0,1-5.524-1.391c-2.961-.918-6.021-1.864-9.18-1.56a5.569,5.569,0,0,0-5,4.953A7.3,7.3,0,0,0,6.457,25.982ZM15,33a1.99,1.99,0,0,1,.944-1.69l.27,3.507A2.014,2.014,0,0,1,15,33ZM11.824,48.136a4.043,4.043,0,0,1-3.265-.978,4.48,4.48,0,0,1-1.28-1.74,7.951,7.951,0,0,0,4.311-.533,4.979,4.979,0,0,1,3.331-.153c-.735.047-1.411.052-1.77.043a.976.976,0,0,0-1.027.972,1,1,0,0,0,.972,1.027c.065,0,.234.006.476.006.292,0,.7-.008,1.152-.03A6.673,6.673,0,0,1,11.824,48.136ZM43.2,46a3.009,3.009,0,0,1,2.82,1.975,7.237,7.237,0,0,1-4.864,9.444l-8.86,2.461-1.389-1.389A11.84,11.84,0,0,0,22.478,55,5.476,5.476,0,0,1,17.2,48.084,2.835,2.835,0,0,1,19.924,46h.915a19.038,19.038,0,0,0,3.19,2.4,5.338,5.338,0,0,0,3.655,4.549,1,1,0,0,0,.632-1.9,3.239,3.239,0,0,1-1.742-1.308c.233.107.46.217.7.32A11.64,11.64,0,0,0,31.886,51a14.6,14.6,0,0,0,6.781-1.78A18.2,18.2,0,0,0,41.1,47.669a2.873,2.873,0,0,1-2.346,3.361A1,1,0,0,0,39,53a.976.976,0,0,0,.244-.03,4.939,4.939,0,0,0,3.727-6.213.977.977,0,0,0-.264-.442c.11-.1.22-.208.327-.315Zm-5.462,1.446a11.15,11.15,0,0,1-9.674.778c-6.045-2.589-9.314-6.544-9.715-11.755l-.641-8.325c.607-.83,2.945-3.509,7.882-3.509a42.141,42.141,0,0,0,11.444-1.613l3.074,1.245a14.269,14.269,0,0,1,3.438,1.992l2.73,2.142L45.7,35.883h0l-.045.585C45.326,40.716,42.145,45.127,37.736,47.446ZM49,33a2.013,2.013,0,0,1-1.214,1.821c.075-.977.172-2.241.27-3.511A1.99,1.99,0,0,1,49,33ZM4.886,19.251A3.624,3.624,0,0,1,8.1,16c2.753-.265,5.494.582,8.4,1.481a36.2,36.2,0,0,0,5.853,1.462A89.694,89.694,0,0,0,40.4,19.8a25.531,25.531,0,0,0,8.028-2.379l1.612-.674c2.222-.931,5.581-2.338,7.554-1.416,1.264.59,1.676,2.295,1.424,3.6-.884,4.546-5.911,7.179-10.617,7.88l.072-.935a7.252,7.252,0,0,0-1.066-4.4,1,1,0,1,0-1.7,1.052,5.264,5.264,0,0,1,.773,3.194L46.458,26l-1.679-1.318a16.218,16.218,0,0,0-3.922-2.272l-3.405-1.38a1,1,0,0,0-.688-.023,40.086,40.086,0,0,1-11.176,1.624,11.974,11.974,0,0,0-8.068,2.808,5.254,5.254,0,0,1,.773-2.917,1,1,0,1,0-1.7-1.052,7.252,7.252,0,0,0-1.066,4.4l.066.858c-2.725-.363-5.835-1-8.052-2.429A5.312,5.312,0,0,1,4.886,19.251Z"/><path d="M15.833,14.667a1,1,0,0,0,1.1-.895l0-.028A149.6,149.6,0,0,1,32,13a149.513,149.513,0,0,1,15.069.744l.008.075a1,1,0,0,0,.994.9c.033,0,.067,0,.1-.005a1,1,0,0,0,.9-1.1l-.743-7.428A4,4,0,0,0,43.56,2.668L37.687,3.843a28.841,28.841,0,0,1-11.374,0L20.44,2.668a4,4,0,0,0-4.764,3.524l-.738,7.381A1,1,0,0,0,15.833,14.667Zm1.833-8.275a2,2,0,0,1,2.382-1.763L25.92,5.8a30.859,30.859,0,0,0,12.16,0l5.872-1.175a2,2,0,0,1,2.382,1.763l.532,5.324C42.119,11.248,37.132,11,32,11s-10.116.248-14.867.716Z"/><path d="M23,30a11.286,11.286,0,0,1,3.581.581l1.1.368a1,1,0,1,0,.632-1.9l-1.1-.367A13.293,13.293,0,0,0,23,28a1,1,0,0,0,0,2Z"/><path d="M25,32v1a1,1,0,0,0,2,0V32a1,1,0,0,0-2,0Z"/><path d="M36,31a1.028,1.028,0,0,0,.316-.051l1.1-.368A11.286,11.286,0,0,1,41,30a1,1,0,0,0,0-2,13.293,13.293,0,0,0-4.214.684l-1.1.367A1,1,0,0,0,36,31Z"/><path d="M37,32v1a1,1,0,0,0,2,0V32a1,1,0,0,0-2,0Z"/></svg>